<svg width="28" height="28" viewBox="0 0 28 28" fill="none" xmlns="http://www.w3.org/2000/svg">
<path d="M4.00355 20H6.46378V15.1932H11.4581V20H13.9126V8.36364H11.4581V13.1648H6.46378V8.36364H4.00355V20ZM15.8729 20H24.1683V17.9886H19.282V17.9091L20.9808 16.2443C23.3729 14.0625 24.0149 12.9716 24.0149 11.6477C24.0149 9.63068 22.3672 8.20455 19.8729 8.20455C17.4297 8.20455 15.7536 9.66477 15.7592 11.9489H18.0945C18.0888 10.8352 18.7933 10.1534 19.8558 10.1534C20.8786 10.1534 21.6399 10.7898 21.6399 11.8125C21.6399 12.7386 21.0717 13.375 20.0149 14.392L15.8729 18.2273V20Z" fill="currentColor"/>
<rect width="28" height="28" rx="4" class="mms-background" fill="transparent"/>
</svg>
