<svg width="28" height="28" viewBox="0 0 28 28" fill="none" xmlns="http://www.w3.org/2000/svg">
<path d="M3.76918 20H6.2294V15.1932H11.2237V20H13.6783V8.36364H11.2237V13.1648H6.2294V8.36364H3.76918V20ZM19.9396 20.1591C22.5533 20.1591 24.4226 18.7216 24.4169 16.733C24.4226 15.2841 23.5021 14.25 21.7919 14.0341V13.9432C23.093 13.7102 23.9908 12.7898 23.9851 11.483C23.9908 9.64773 22.3828 8.20455 19.9737 8.20455C17.5874 8.20455 15.7919 9.60227 15.7578 11.6136H18.1158C18.1442 10.7273 18.9567 10.1534 19.9624 10.1534C20.9567 10.1534 21.6214 10.7557 21.6158 11.6307C21.6214 12.5455 20.843 13.1648 19.7237 13.1648H18.6385V14.9716H19.7237C21.0419 14.9716 21.8658 15.6307 21.8601 16.5682C21.8658 17.4943 21.0703 18.1307 19.9453 18.1307C18.8601 18.1307 18.0476 17.5625 18.0021 16.7102H15.5249C15.5646 18.7443 17.3828 20.1591 19.9396 20.1591Z" fill="currentColor"/>
<rect width="28" height="28" rx="4" class="mms-background" fill="transparent"/>
</svg>

