<svg width="28" height="28" viewBox="0 0 28 28" fill="none" xmlns="http://www.w3.org/2000/svg">
<path d="M3.76136 20H6.22159V15.1932H11.2159V20H13.6705V8.36364H11.2159V13.1648H6.22159V8.36364H3.76136V20ZM20.0966 20.1591C22.6875 20.1705 24.4545 18.4716 24.4489 16.1023C24.4545 13.9205 22.9318 12.3466 20.8693 12.3466C19.5909 12.3466 18.4602 12.9602 17.9375 13.9886H17.858C17.8693 11.7216 18.6648 10.3125 20.1818 10.3125C21.0739 10.3125 21.7159 10.8011 21.9034 11.6136H24.3295C24.0966 9.69886 22.5057 8.20455 20.1818 8.20455C17.3068 8.20455 15.4602 10.5341 15.4489 14.4432C15.4432 18.7045 17.7045 20.1477 20.0966 20.1591ZM20.0852 18.2273C18.9489 18.2273 18.108 17.3125 18.108 16.1761C18.1136 15.0455 18.9716 14.125 20.1023 14.125C21.2386 14.125 22.0682 15.017 22.0625 16.1705C22.0682 17.3352 21.2216 18.2273 20.0852 18.2273Z" fill="currentColor"/>
<rect width="28" height="28" rx="4" class="mms-background" fill="transparent"/>
</svg>
