<svg width="28" height="28" viewBox="0 0 28 28" fill="none" xmlns="http://www.w3.org/2000/svg">
<path d="M3.88636 20H6.34659V15.1932H11.3409V20H13.7955V8.36364H11.3409V13.1648H6.34659V8.36364H3.88636V20ZM20.0057 20.1591C22.5966 20.1591 24.358 18.4716 24.3523 16.1193C24.358 13.892 22.8011 12.2898 20.7045 12.2898C19.6818 12.2898 18.8011 12.7159 18.392 13.2898H18.3239L18.625 10.375H23.7102V8.36364H16.5966L16.0455 14.5L18.233 14.892C18.5909 14.4091 19.2841 14.108 19.9716 14.108C21.142 14.1136 21.983 14.9602 21.983 16.1818C21.983 17.392 21.1591 18.2273 20.0057 18.2273C19.0284 18.2273 18.2386 17.6136 18.1818 16.7102H15.7955C15.8409 18.7216 17.5966 20.1591 20.0057 20.1591Z" fill="currentColor"/>
<rect width="28" height="28" rx="4" class="mms-background" fill="transparent"/>
</svg>
